<mxfile host="Electron" agent="Mozilla/5.0 (X11; Linux x86_64) AppleWebKit/537.36 (KHTML, like Gecko) draw.io/24.7.17 Chrome/128.0.6613.36 Electron/32.0.1 Safari/537.36" version="24.7.17">
  <diagram name="Seite-1" id="cVA9_5e8J0DKBq7RH6YI">
    <mxGraphModel dx="1195" dy="733" grid="1" gridSize="10" guides="1" tooltips="1" connect="1" arrows="1" fold="1" page="1" pageScale="1" pageWidth="827" pageHeight="1169" math="0" shadow="0">
      <root>
        <mxCell id="0" />
        <mxCell id="1" parent="0" />
        <mxCell id="7VXMVgR8vHPEnq-q2Bca-11" value="" style="rounded=0;whiteSpace=wrap;html=1;fillColor=#f5f5f5;fontColor=#333333;strokeColor=#666666;" vertex="1" parent="1">
          <mxGeometry x="680" y="390" width="120" height="60" as="geometry" />
        </mxCell>
        <mxCell id="7VXMVgR8vHPEnq-q2Bca-8" value="" style="rounded=0;whiteSpace=wrap;html=1;" vertex="1" parent="1">
          <mxGeometry x="310" y="390" width="260" height="290" as="geometry" />
        </mxCell>
        <mxCell id="7VXMVgR8vHPEnq-q2Bca-3" value="" style="ellipse;whiteSpace=wrap;html=1;fillColor=#ffe6cc;strokeColor=#d79b00;" vertex="1" parent="1">
          <mxGeometry x="320" y="400" width="120" height="80" as="geometry" />
        </mxCell>
        <mxCell id="7VXMVgR8vHPEnq-q2Bca-4" value="" style="ellipse;whiteSpace=wrap;html=1;fillColor=#ffe6cc;strokeColor=#d79b00;" vertex="1" parent="1">
          <mxGeometry x="440" y="520" width="120" height="80" as="geometry" />
        </mxCell>
        <mxCell id="7VXMVgR8vHPEnq-q2Bca-5" value="" style="endArrow=classic;html=1;rounded=0;exitX=1;exitY=0.5;exitDx=0;exitDy=0;entryX=0.5;entryY=0;entryDx=0;entryDy=0;" edge="1" parent="1" source="7VXMVgR8vHPEnq-q2Bca-3" target="7VXMVgR8vHPEnq-q2Bca-4">
          <mxGeometry width="50" height="50" relative="1" as="geometry">
            <mxPoint x="475" y="440" as="sourcePoint" />
            <mxPoint x="525" y="390" as="targetPoint" />
            <Array as="points">
              <mxPoint x="500" y="440" />
            </Array>
          </mxGeometry>
        </mxCell>
        <mxCell id="7VXMVgR8vHPEnq-q2Bca-7" value="" style="endArrow=classic;html=1;rounded=0;exitX=0;exitY=0.5;exitDx=0;exitDy=0;entryX=0.5;entryY=1;entryDx=0;entryDy=0;" edge="1" parent="1" source="7VXMVgR8vHPEnq-q2Bca-4" target="7VXMVgR8vHPEnq-q2Bca-3">
          <mxGeometry width="50" height="50" relative="1" as="geometry">
            <mxPoint x="310" y="570" as="sourcePoint" />
            <mxPoint x="360" y="520" as="targetPoint" />
            <Array as="points">
              <mxPoint x="380" y="560" />
            </Array>
          </mxGeometry>
        </mxCell>
        <mxCell id="7VXMVgR8vHPEnq-q2Bca-10" value="" style="rounded=0;whiteSpace=wrap;html=1;fillColor=#f5f5f5;fontColor=#333333;strokeColor=#666666;" vertex="1" parent="1">
          <mxGeometry x="670" y="400" width="120" height="60" as="geometry" />
        </mxCell>
        <mxCell id="7VXMVgR8vHPEnq-q2Bca-9" value="Field Registers" style="rounded=0;whiteSpace=wrap;html=1;fillColor=#f5f5f5;fontColor=#333333;strokeColor=#666666;" vertex="1" parent="1">
          <mxGeometry x="660" y="410" width="120" height="60" as="geometry" />
        </mxCell>
        <mxCell id="7VXMVgR8vHPEnq-q2Bca-12" value="" style="endArrow=classic;startArrow=classic;html=1;rounded=0;" edge="1" parent="1">
          <mxGeometry width="50" height="50" relative="1" as="geometry">
            <mxPoint x="580" y="460" as="sourcePoint" />
            <mxPoint x="650" y="460.28999999999996" as="targetPoint" />
          </mxGeometry>
        </mxCell>
        <mxCell id="7VXMVgR8vHPEnq-q2Bca-13" value="" style="rounded=0;whiteSpace=wrap;html=1;fillColor=#f5f5f5;fontColor=#333333;strokeColor=#666666;" vertex="1" parent="1">
          <mxGeometry x="680" y="520" width="120" height="60" as="geometry" />
        </mxCell>
        <mxCell id="7VXMVgR8vHPEnq-q2Bca-14" value="" style="rounded=0;whiteSpace=wrap;html=1;fillColor=#f5f5f5;fontColor=#333333;strokeColor=#666666;" vertex="1" parent="1">
          <mxGeometry x="670" y="530" width="120" height="60" as="geometry" />
        </mxCell>
        <mxCell id="7VXMVgR8vHPEnq-q2Bca-15" value="Bit Registers" style="rounded=0;whiteSpace=wrap;html=1;fillColor=#f5f5f5;fontColor=#333333;strokeColor=#666666;" vertex="1" parent="1">
          <mxGeometry x="660" y="540" width="120" height="60" as="geometry" />
        </mxCell>
        <mxCell id="7VXMVgR8vHPEnq-q2Bca-16" value="" style="endArrow=classic;startArrow=classic;html=1;rounded=0;" edge="1" parent="1">
          <mxGeometry width="50" height="50" relative="1" as="geometry">
            <mxPoint x="580" y="585" as="sourcePoint" />
            <mxPoint x="650" y="585.29" as="targetPoint" />
          </mxGeometry>
        </mxCell>
        <mxCell id="7VXMVgR8vHPEnq-q2Bca-17" value="" style="rounded=0;whiteSpace=wrap;html=1;fillColor=#dae8fc;strokeColor=#6c8ebf;" vertex="1" parent="1">
          <mxGeometry x="200" y="280" width="40" height="400" as="geometry" />
        </mxCell>
        <mxCell id="7VXMVgR8vHPEnq-q2Bca-18" value="" style="rounded=0;whiteSpace=wrap;html=1;fillColor=#f8cecc;strokeColor=#b85450;" vertex="1" parent="1">
          <mxGeometry x="960" y="280" width="40" height="400" as="geometry" />
        </mxCell>
        <mxCell id="7VXMVgR8vHPEnq-q2Bca-19" value="" style="endArrow=classic;html=1;rounded=0;" edge="1" parent="1">
          <mxGeometry width="50" height="50" relative="1" as="geometry">
            <mxPoint x="240" y="360" as="sourcePoint" />
            <mxPoint x="650" y="450" as="targetPoint" />
            <Array as="points">
              <mxPoint x="600" y="360" />
              <mxPoint x="600" y="450" />
            </Array>
          </mxGeometry>
        </mxCell>
        <mxCell id="7VXMVgR8vHPEnq-q2Bca-20" value="rxd" style="edgeLabel;html=1;align=center;verticalAlign=middle;resizable=0;points=[];" vertex="1" connectable="0" parent="7VXMVgR8vHPEnq-q2Bca-19">
          <mxGeometry x="-0.4272" y="-2" relative="1" as="geometry">
            <mxPoint x="-43" y="-2" as="offset" />
          </mxGeometry>
        </mxCell>
        <mxCell id="7VXMVgR8vHPEnq-q2Bca-21" value="" style="endArrow=classic;html=1;rounded=0;" edge="1" parent="1">
          <mxGeometry width="50" height="50" relative="1" as="geometry">
            <mxPoint x="240" y="350" as="sourcePoint" />
            <mxPoint x="650" y="440" as="targetPoint" />
            <Array as="points">
              <mxPoint x="610" y="350" />
              <mxPoint x="610" y="440" />
            </Array>
          </mxGeometry>
        </mxCell>
        <mxCell id="7VXMVgR8vHPEnq-q2Bca-22" value="sample" style="edgeLabel;html=1;align=center;verticalAlign=middle;resizable=0;points=[];" vertex="1" connectable="0" parent="7VXMVgR8vHPEnq-q2Bca-21">
          <mxGeometry x="-0.4272" y="-2" relative="1" as="geometry">
            <mxPoint x="7" y="-2" as="offset" />
          </mxGeometry>
        </mxCell>
        <mxCell id="7VXMVgR8vHPEnq-q2Bca-23" value="" style="endArrow=classic;html=1;rounded=0;" edge="1" parent="1">
          <mxGeometry width="50" height="50" relative="1" as="geometry">
            <mxPoint x="240" y="340" as="sourcePoint" />
            <mxPoint x="650" y="430" as="targetPoint" />
            <Array as="points">
              <mxPoint x="620" y="340" />
              <mxPoint x="620" y="380" />
              <mxPoint x="620" y="430" />
            </Array>
          </mxGeometry>
        </mxCell>
        <mxCell id="7VXMVgR8vHPEnq-q2Bca-24" value="stuffbit" style="edgeLabel;html=1;align=center;verticalAlign=middle;resizable=0;points=[];" vertex="1" connectable="0" parent="7VXMVgR8vHPEnq-q2Bca-23">
          <mxGeometry x="-0.4272" y="-2" relative="1" as="geometry">
            <mxPoint x="57" y="-2" as="offset" />
          </mxGeometry>
        </mxCell>
        <mxCell id="7VXMVgR8vHPEnq-q2Bca-25" value="" style="endArrow=classic;html=1;rounded=0;" edge="1" parent="1">
          <mxGeometry width="50" height="50" relative="1" as="geometry">
            <mxPoint x="600" y="450" as="sourcePoint" />
            <mxPoint x="650" y="570" as="targetPoint" />
            <Array as="points">
              <mxPoint x="600" y="570" />
            </Array>
          </mxGeometry>
        </mxCell>
        <mxCell id="7VXMVgR8vHPEnq-q2Bca-26" value="" style="endArrow=classic;html=1;rounded=0;" edge="1" parent="1">
          <mxGeometry width="50" height="50" relative="1" as="geometry">
            <mxPoint x="610" y="440" as="sourcePoint" />
            <mxPoint x="650" y="560" as="targetPoint" />
            <Array as="points">
              <mxPoint x="610" y="560" />
            </Array>
          </mxGeometry>
        </mxCell>
        <mxCell id="7VXMVgR8vHPEnq-q2Bca-27" value="" style="endArrow=classic;html=1;rounded=0;" edge="1" parent="1">
          <mxGeometry width="50" height="50" relative="1" as="geometry">
            <mxPoint x="620" y="430" as="sourcePoint" />
            <mxPoint x="650" y="550" as="targetPoint" />
            <Array as="points">
              <mxPoint x="620" y="550" />
            </Array>
          </mxGeometry>
        </mxCell>
        <mxCell id="7VXMVgR8vHPEnq-q2Bca-28" value="" style="ellipse;whiteSpace=wrap;html=1;aspect=fixed;fillColor=#f5f5f5;fontColor=#333333;strokeColor=#666666;" vertex="1" parent="1">
          <mxGeometry x="840" y="480" width="40" height="40" as="geometry" />
        </mxCell>
        <mxCell id="7VXMVgR8vHPEnq-q2Bca-29" value="" style="endArrow=classic;html=1;rounded=0;entryX=0.5;entryY=0;entryDx=0;entryDy=0;" edge="1" parent="1" target="7VXMVgR8vHPEnq-q2Bca-28">
          <mxGeometry width="50" height="50" relative="1" as="geometry">
            <mxPoint x="810" y="440" as="sourcePoint" />
            <mxPoint x="860" y="478" as="targetPoint" />
            <Array as="points">
              <mxPoint x="860" y="440" />
            </Array>
          </mxGeometry>
        </mxCell>
        <mxCell id="7VXMVgR8vHPEnq-q2Bca-32" value="data" style="edgeLabel;html=1;align=center;verticalAlign=middle;resizable=0;points=[];" vertex="1" connectable="0" parent="7VXMVgR8vHPEnq-q2Bca-29">
          <mxGeometry x="-0.4617" relative="1" as="geometry">
            <mxPoint as="offset" />
          </mxGeometry>
        </mxCell>
        <mxCell id="7VXMVgR8vHPEnq-q2Bca-30" value="" style="endArrow=classic;html=1;rounded=0;entryX=0.5;entryY=1;entryDx=0;entryDy=0;" edge="1" parent="1" target="7VXMVgR8vHPEnq-q2Bca-28">
          <mxGeometry width="50" height="50" relative="1" as="geometry">
            <mxPoint x="810" y="570" as="sourcePoint" />
            <mxPoint x="860" y="520" as="targetPoint" />
            <Array as="points">
              <mxPoint x="860" y="570" />
            </Array>
          </mxGeometry>
        </mxCell>
        <mxCell id="7VXMVgR8vHPEnq-q2Bca-33" value="flags" style="edgeLabel;html=1;align=center;verticalAlign=middle;resizable=0;points=[];" vertex="1" connectable="0" parent="7VXMVgR8vHPEnq-q2Bca-30">
          <mxGeometry x="-0.6711" relative="1" as="geometry">
            <mxPoint as="offset" />
          </mxGeometry>
        </mxCell>
        <mxCell id="7VXMVgR8vHPEnq-q2Bca-31" value="" style="endArrow=classic;html=1;rounded=0;exitX=1;exitY=0.5;exitDx=0;exitDy=0;entryX=-0.07;entryY=0.549;entryDx=0;entryDy=0;entryPerimeter=0;" edge="1" parent="1" source="7VXMVgR8vHPEnq-q2Bca-28" target="7VXMVgR8vHPEnq-q2Bca-18">
          <mxGeometry width="50" height="50" relative="1" as="geometry">
            <mxPoint x="930" y="530" as="sourcePoint" />
            <mxPoint x="980" y="480" as="targetPoint" />
          </mxGeometry>
        </mxCell>
        <mxCell id="7VXMVgR8vHPEnq-q2Bca-34" value="can_frame" style="edgeLabel;html=1;align=center;verticalAlign=middle;resizable=0;points=[];" vertex="1" connectable="0" parent="7VXMVgR8vHPEnq-q2Bca-31">
          <mxGeometry x="-0.1889" y="1" relative="1" as="geometry">
            <mxPoint as="offset" />
          </mxGeometry>
        </mxCell>
        <mxCell id="7VXMVgR8vHPEnq-q2Bca-35" value="" style="endArrow=classic;html=1;rounded=0;entryX=-0.02;entryY=0.947;entryDx=0;entryDy=0;entryPerimeter=0;" edge="1" parent="1" target="7VXMVgR8vHPEnq-q2Bca-18">
          <mxGeometry width="50" height="50" relative="1" as="geometry">
            <mxPoint x="570" y="660" as="sourcePoint" />
            <mxPoint x="620" y="610" as="targetPoint" />
          </mxGeometry>
        </mxCell>
        <mxCell id="7VXMVgR8vHPEnq-q2Bca-36" value="control signals" style="edgeLabel;html=1;align=center;verticalAlign=middle;resizable=0;points=[];" vertex="1" connectable="0" parent="7VXMVgR8vHPEnq-q2Bca-35">
          <mxGeometry x="-0.0645" y="1" relative="1" as="geometry">
            <mxPoint as="offset" />
          </mxGeometry>
        </mxCell>
        <mxCell id="7VXMVgR8vHPEnq-q2Bca-37" value="" style="endArrow=classic;html=1;rounded=0;entryX=0.001;entryY=0.31;entryDx=0;entryDy=0;entryPerimeter=0;" edge="1" parent="1" target="7VXMVgR8vHPEnq-q2Bca-8">
          <mxGeometry width="50" height="50" relative="1" as="geometry">
            <mxPoint x="240" y="480" as="sourcePoint" />
            <mxPoint x="290" y="430" as="targetPoint" />
          </mxGeometry>
        </mxCell>
        <mxCell id="7VXMVgR8vHPEnq-q2Bca-40" value="rxd" style="edgeLabel;html=1;align=center;verticalAlign=middle;resizable=0;points=[];" vertex="1" connectable="0" parent="7VXMVgR8vHPEnq-q2Bca-37">
          <mxGeometry x="0.0374" relative="1" as="geometry">
            <mxPoint as="offset" />
          </mxGeometry>
        </mxCell>
        <mxCell id="7VXMVgR8vHPEnq-q2Bca-38" value="" style="endArrow=classic;html=1;rounded=0;entryX=0.001;entryY=0.31;entryDx=0;entryDy=0;entryPerimeter=0;" edge="1" parent="1">
          <mxGeometry width="50" height="50" relative="1" as="geometry">
            <mxPoint x="240" y="519.72" as="sourcePoint" />
            <mxPoint x="310" y="519.72" as="targetPoint" />
          </mxGeometry>
        </mxCell>
        <mxCell id="7VXMVgR8vHPEnq-q2Bca-41" value="sample" style="edgeLabel;html=1;align=center;verticalAlign=middle;resizable=0;points=[];" vertex="1" connectable="0" parent="7VXMVgR8vHPEnq-q2Bca-38">
          <mxGeometry x="-0.1968" y="1" relative="1" as="geometry">
            <mxPoint as="offset" />
          </mxGeometry>
        </mxCell>
        <mxCell id="7VXMVgR8vHPEnq-q2Bca-39" value="" style="endArrow=classic;html=1;rounded=0;entryX=0.001;entryY=0.31;entryDx=0;entryDy=0;entryPerimeter=0;" edge="1" parent="1">
          <mxGeometry width="50" height="50" relative="1" as="geometry">
            <mxPoint x="240" y="559.86" as="sourcePoint" />
            <mxPoint x="310" y="559.86" as="targetPoint" />
          </mxGeometry>
        </mxCell>
        <mxCell id="7VXMVgR8vHPEnq-q2Bca-42" value="stuffbit" style="edgeLabel;html=1;align=center;verticalAlign=middle;resizable=0;points=[];" vertex="1" connectable="0" parent="7VXMVgR8vHPEnq-q2Bca-39">
          <mxGeometry x="-0.1016" y="1" relative="1" as="geometry">
            <mxPoint as="offset" />
          </mxGeometry>
        </mxCell>
        <mxCell id="7VXMVgR8vHPEnq-q2Bca-43" value="Decoding FSM" style="text;strokeColor=none;align=center;fillColor=none;html=1;verticalAlign=middle;whiteSpace=wrap;rounded=0;" vertex="1" parent="1">
          <mxGeometry x="400" y="620" width="60" height="30" as="geometry" />
        </mxCell>
      </root>
    </mxGraphModel>
  </diagram>
</mxfile>
